<svg xmlns="http://www.w3.org/2000/svg" viewBox="0 0 200 190">
  <path fill="#FCB400" d="M90.04 12.37 8.7 46.05c-4.52 1.87-4.47 8.3.07 10.11l81.68 32.4a26.6 26.6 0 0 0 19.46 0l81.68-32.4c4.55-1.8 4.6-8.24.07-10.11l-81.33-33.68a26.6 26.6 0 0 0-20.3 0"/>
  <path fill="#18BFFF" d="M105.31 99.46v80.94c0 3.85 3.88 6.49 7.46 5.07l91.02-35.32a5.46 5.46 0 0 0 3.44-5.07V64.14c0-3.85-3.88-6.49-7.46-5.07L108.75 94.4a5.46 5.46 0 0 0-3.44 5.07"/>
  <path fill="#F82B60" d="M84.06 103.64 57.04 116.7l-2.74 1.32L17.27 135.8c-3.62 1.75-8.24-.89-8.24-4.91V64.5c0-1.46.75-2.71 1.75-3.66a6.1 6.1 0 0 1 1.38-1.04c1.34-.8 3.25-1.02 4.87-.38l66.62 26.4c3.38 1.34 3.65 6.09.41 7.82"/>
  <path fill="rgba(0,0,0,0.25)" d="m84.06 103.64-27.02 13.06-46.31-39.9a6.1 6.1 0 0 1 1.43-.94c1.34-.8 3.25-1.02 4.87-.38l66.62 26.4c3.38 1.34 3.65 6.09.41 7.76"/>
</svg>
