<svg xmlns="http://www.w3.org/2000/svg" viewBox="0 0 24 24" width="24" height="24"><path d="M21.6 12.2c0-.7-.06-1.2-.18-1.78H12v3.4h5.5a4.7 4.7 0 0 1-2.04 3.08v2.55h3.3c1.93-1.78 3.04-4.4 3.04-7.25Z" fill="#4285F4"/><path d="M12 22c2.75 0 5.06-.9 6.74-2.46l-3.3-2.55c-.9.6-2.06.96-3.44.96-2.65 0-4.9-1.79-5.7-4.2H2.9v2.63A10 10 0 0 0 12 22Z" fill="#34A853"/><path d="M6.3 13.75a6 6 0 0 1 0-3.5V7.62H2.9a10 10 0 0 0 0 8.76l3.4-2.63Z" fill="#FBBC05"/><path d="M12 5.95c1.5 0 2.84.51 3.9 1.52l2.92-2.92C17.06 2.92 14.75 2 12 2A10 10 0 0 0 2.9 7.62l3.4 2.63C7.1 7.74 9.35 5.95 12 5.95Z" fill="#EA4335"/></svg>
